<?xml version="1.0" encoding="UTF-8" standalone="no"?>
<!-- Created with Inkscape (http://www.inkscape.org/) -->

<svg
   xmlns:dc="http://purl.org/dc/elements/1.1/"
   xmlns:cc="http://creativecommons.org/ns#"
   xmlns:rdf="http://www.w3.org/1999/02/22-rdf-syntax-ns#"
   xmlns:svg="http://www.w3.org/2000/svg"
   xmlns="http://www.w3.org/2000/svg"
   xmlns:sodipodi="http://sodipodi.sourceforge.net/DTD/sodipodi-0.dtd"
   xmlns:inkscape="http://www.inkscape.org/namespaces/inkscape"
   version="1.1"
   id="svg2"
   xml:space="preserve"
   width="600"
   height="324"
   viewBox="0 0 600 324"
   sodipodi:docname="RENCI-Official-Logo.svg"
   inkscape:version="0.92.3 (2405546, 2018-03-11)"><metadata
     id="metadata8"><rdf:RDF><cc:Work
         rdf:about=""><dc:format>image/svg+xml</dc:format><dc:type
           rdf:resource="http://purl.org/dc/dcmitype/StillImage" /><dc:title></dc:title></cc:Work></rdf:RDF></metadata><defs
     id="defs6"><clipPath
       clipPathUnits="userSpaceOnUse"
       id="clipPath20"><path
         d="M 0,612 H 792 V 0 H 0 Z"
         id="path18"
         inkscape:connector-curvature="0" /></clipPath></defs><sodipodi:namedview
     pagecolor="#ffffff"
     bordercolor="#666666"
     borderopacity="1"
     objecttolerance="10"
     gridtolerance="10"
     guidetolerance="10"
     inkscape:pageopacity="0"
     inkscape:pageshadow="2"
     inkscape:window-width="1545"
     inkscape:window-height="1080"
     id="namedview4"
     showgrid="false"
     inkscape:zoom="1.1568627"
     inkscape:cx="371.57199"
     inkscape:cy="170.91728"
     inkscape:window-x="525"
     inkscape:window-y="186"
     inkscape:window-maximized="0"
     inkscape:current-layer="g10"
     inkscape:pagecheckerboard="true" /><g
     id="g10"
     inkscape:groupmode="layer"
     inkscape:label="RENCI-Official-Logo"
     transform="matrix(1.3333333,0,0,-1.3333333,0,324)"><g
       id="g1097"><g
         transform="translate(50.42795,154.1897)"
         id="g22"><path
           inkscape:connector-curvature="0"
           id="path24"
           style="fill:#008ca8;fill-opacity:1;fill-rule:nonzero;stroke:none"
           d="m 0,0 h 12.035 v -13.386 c 3.589,5.277 7.378,9.219 11.361,11.827 3.984,2.611 8.137,3.911 12.459,3.911 3.251,0 6.735,-1.036 10.44,-3.11 l -6.147,-9.935 c -2.469,1.065 -4.544,1.602 -6.227,1.602 -3.929,0 -7.718,-1.612 -11.364,-4.846 -3.65,-3.223 -6.426,-8.23 -8.331,-15.016 -1.462,-5.222 -2.191,-15.771 -2.191,-31.654 V -91.58 H 0 Z" /></g><g
         transform="translate(175.57975,118.6101)"
         id="g26"><path
           inkscape:connector-curvature="0"
           id="path28"
           style="fill:#008ca8;fill-opacity:1;fill-rule:nonzero;stroke:none"
           d="m 0,0 c -1.534,6.131 -3.773,11.034 -6.705,14.7 -2.932,3.663 -6.809,6.62 -11.632,8.864 -4.821,2.246 -9.893,3.366 -15.208,3.366 -8.771,0 -16.305,-2.819 -22.61,-8.455 C -60.756,14.369 -64.236,8.214 -66.594,0 Z m 0,-24.06 9.689,-5.09 c -3.181,-6.233 -6.848,-11.276 -11.016,-15.108 -4.164,-3.83 -8.844,-6.746 -14.055,-8.737 -5.204,-2.003 -11.096,-3.005 -17.667,-3.005 -14.576,0 -25.972,4.777 -34.188,14.33 -8.222,9.551 -12.328,20.354 -12.328,32.396 0,11.325 3.477,21.428 10.434,30.294 8.821,11.279 20.627,16.911 35.426,16.911 15.227,0 27.39,-5.771 36.487,-17.322 6.465,-8.156 9.75,-18.338 9.862,-30.545 h -80.387 c 0.214,-10.371 3.537,-18.882 9.945,-25.518 6.414,-6.637 14.333,-9.954 23.758,-9.954 4.554,0 8.976,0.799 13.28,2.373 4.301,1.582 7.962,3.681 10.975,6.304 3.015,2.617 6.276,6.839 9.785,12.671" /></g><g
         transform="translate(198.26435,154.1897)"
         id="g30"><path
           inkscape:connector-curvature="0"
           id="path32"
           style="fill:#231f20;fill-opacity:1;fill-rule:nonzero;stroke:none"
           d="m 0,0 h 11.784 v -16.416 c 4.718,6.286 9.933,10.985 15.659,14.098 5.721,3.114 11.949,4.67 18.687,4.67 6.844,0 12.918,-1.737 18.225,-5.215 5.301,-3.478 9.213,-8.164 11.74,-14.056 2.524,-5.895 3.789,-15.063 3.789,-27.524 V -91.58 H 68.097 v 43.682 c 0,10.549 -0.439,17.594 -1.306,21.133 -1.366,6.057 -3.991,10.617 -7.864,13.674 -3.867,3.058 -8.918,4.584 -15.146,4.584 -7.129,0 -13.516,-2.354 -19.156,-7.067 C 18.986,-20.285 15.268,-26.126 13.468,-33.082 12.344,-37.625 11.784,-45.927 11.784,-58 V -91.58 H 0 Z" /></g><g
         transform="translate(379.08225,135.6882)"
         id="g34"><path
           inkscape:connector-curvature="0"
           id="path36"
           style="fill:#231f20;fill-opacity:1;fill-rule:nonzero;stroke:none"
           d="m 0,0 -9.115,-5.664 c -7.874,10.457 -18.616,15.682 -32.235,15.682 -10.878,0 -19.913,-3.5 -27.098,-10.497 -7.194,-7 -10.784,-15.502 -10.784,-25.503 0,-6.509 1.65,-12.633 4.96,-18.375 3.307,-5.739 7.842,-10.2 13.613,-13.369 5.767,-3.167 12.233,-4.76 19.399,-4.76 13.12,0 23.834,5.232 32.145,15.683 L 0,-52.793 c -4.269,-6.43 -10.006,-11.42 -17.2,-14.965 -7.199,-3.547 -15.401,-5.32 -24.591,-5.32 -14.13,0 -25.838,4.492 -35.145,13.469 -9.308,8.976 -13.958,19.9 -13.958,32.759 0,8.655 2.175,16.684 6.523,24.1 4.357,7.416 10.333,13.203 17.946,17.365 7.604,4.157 16.116,6.238 25.533,6.238 5.914,0 11.618,-0.899 17.118,-2.708 5.506,-1.807 10.169,-4.161 14.004,-7.061 C -5.939,8.182 -2.685,4.489 0,0" /></g><path
         inkscape:connector-curvature="0"
         id="path38"
         style="fill:#008ca8;fill-opacity:1;fill-rule:nonzero;stroke:none"
         d="m 388.96325,156.5417 h 12.086 v -93.931 h -12.086 z" /><g
         transform="translate(331.04025,234.3894)"
         id="g40"><path
           inkscape:connector-curvature="0"
           id="path42"
           style="fill:#008ca8;fill-opacity:1;fill-rule:nonzero;stroke:none"
           d="M 0,0 70.009,-57.841 V -68.928 H 57.956 Z" /></g><g
         transform="translate(8.64375,17.4646)"
         id="g44"><path
           inkscape:connector-curvature="0"
           id="path46"
           style="fill:#231f20;fill-opacity:1;fill-rule:nonzero;stroke:none"
           d="M 0,0 H 0.902 C 1.819,0 2.45,0.121 2.796,0.361 3.141,0.604 3.314,1.002 3.314,1.559 3.314,1.89 3.229,2.177 3.059,2.423 2.885,2.665 2.658,2.839 2.369,2.947 2.084,3.053 1.559,3.106 0.791,3.106 H 0 Z m -2.88,5.915 h 3.054 c 1.669,0 2.86,-0.148 3.567,-0.448 C 4.452,5.172 5.021,4.675 5.456,3.983 5.885,3.291 6.103,2.47 6.103,1.522 6.103,0.528 5.863,-0.302 5.389,-0.973 4.908,-1.639 4.192,-2.146 3.232,-2.488 L 6.816,-9.219 H 3.667 l -3.401,6.41 H 0 v -6.41 h -2.88 z" /></g><g
         transform="translate(17.80195,23.3797)"
         id="g48"><path
           inkscape:connector-curvature="0"
           id="path50"
           style="fill:#231f20;fill-opacity:1;fill-rule:nonzero;stroke:none"
           d="M 0,0 H 8.261 V -2.817 H 2.86 V -5.556 H 8.261 V -8.322 H 2.86 v -3.982 h 5.401 v -2.83 H 0 Z" /></g><g
         transform="translate(36.68965,21.322)"
         id="g52"><path
           inkscape:connector-curvature="0"
           id="path54"
           style="fill:#231f20;fill-opacity:1;fill-rule:nonzero;stroke:none"
           d="m 0,0 -2.135,-1.883 c -0.747,1.042 -1.51,1.568 -2.286,1.568 -0.379,0 -0.687,-0.103 -0.926,-0.304 -0.242,-0.204 -0.362,-0.434 -0.362,-0.687 0,-0.252 0.084,-0.494 0.258,-0.721 0.231,-0.299 0.938,-0.95 2.113,-1.941 1.1,-0.921 1.766,-1.501 1.997,-1.741 0.583,-0.59 0.999,-1.152 1.242,-1.694 0.246,-0.537 0.367,-1.123 0.367,-1.762 0,-1.242 -0.429,-2.268 -1.286,-3.076 -0.858,-0.81 -1.98,-1.215 -3.36,-1.215 -1.078,0 -2.016,0.266 -2.816,0.792 -0.799,0.528 -1.485,1.358 -2.056,2.49 l 2.422,1.461 c 0.728,-1.338 1.567,-2.007 2.515,-2.007 0.496,0 0.913,0.143 1.248,0.432 0.337,0.288 0.506,0.62 0.506,1 0,0.342 -0.128,0.687 -0.383,1.027 -0.253,0.342 -0.816,0.868 -1.679,1.577 -1.65,1.34 -2.716,2.381 -3.195,3.109 -0.483,0.732 -0.722,1.459 -0.722,2.187 0,1.051 0.4,1.949 1.201,2.702 0.798,0.75 1.785,1.125 2.959,1.125 0.756,0 1.477,-0.175 2.159,-0.521 C -1.534,1.565 -0.796,0.929 0,0" /></g><g
         transform="translate(39.71405,23.3797)"
         id="g56"><path
           inkscape:connector-curvature="0"
           id="path58"
           style="fill:#231f20;fill-opacity:1;fill-rule:nonzero;stroke:none"
           d="M 0,0 H 8.261 V -2.817 H 2.86 V -5.556 H 8.261 V -8.322 H 2.86 v -3.982 h 5.401 v -2.83 H 0 Z" /></g><g
         transform="translate(56.75705,19.3709)"
         id="g60"><path
           inkscape:connector-curvature="0"
           id="path62"
           style="fill:#231f20;fill-opacity:1;fill-rule:nonzero;stroke:none"
           d="M 0,0 -2.028,-5.199 H 2.019 Z M -1.479,4.009 H 1.442 L 7.265,-11.125 H 4.269 L 3.084,-8.008 H -3.09 l -1.23,-3.117 h -2.995 z" /></g><g
         transform="translate(69.32535,17.4646)"
         id="g64"><path
           inkscape:connector-curvature="0"
           id="path66"
           style="fill:#231f20;fill-opacity:1;fill-rule:nonzero;stroke:none"
           d="M 0,0 H 0.902 C 1.818,0 2.448,0.121 2.793,0.361 3.141,0.604 3.312,1.002 3.312,1.559 3.312,1.89 3.225,2.177 3.056,2.423 2.885,2.665 2.655,2.839 2.368,2.947 2.081,3.053 1.553,3.106 0.788,3.106 H 0 Z M -2.883,5.915 H 0.169 C 1.843,5.915 3.031,5.767 3.743,5.467 4.45,5.172 5.021,4.675 5.451,3.983 5.885,3.291 6.1,2.47 6.1,1.522 6.1,0.528 5.861,-0.302 5.384,-0.973 4.908,-1.639 4.191,-2.146 3.229,-2.488 L 6.813,-9.219 H 3.666 l -3.403,6.41 H 0 v -6.41 h -2.883 z" /></g><g
         transform="translate(92.37815,20.7215)"
         id="g68"><path
           inkscape:connector-curvature="0"
           id="path70"
           style="fill:#231f20;fill-opacity:1;fill-rule:nonzero;stroke:none"
           d="m 0,0 -2.011,-1.921 c -1.373,1.447 -2.914,2.174 -4.629,2.174 -1.444,0 -2.663,-0.495 -3.654,-1.484 -0.989,-0.988 -1.483,-2.207 -1.483,-3.657 0,-1.008 0.217,-1.904 0.656,-2.689 0.438,-0.781 1.058,-1.396 1.862,-1.841 0.801,-0.448 1.691,-0.669 2.672,-0.669 0.837,0 1.602,0.155 2.294,0.467 0.692,0.312 1.452,0.882 2.282,1.705 l 1.953,-2.038 c -1.119,-1.089 -2.175,-1.85 -3.169,-2.27 -0.996,-0.421 -2.131,-0.632 -3.408,-0.632 -2.349,0 -4.276,0.745 -5.776,2.238 -1.498,1.49 -2.248,3.403 -2.248,5.734 0,1.512 0.342,2.849 1.024,4.024 0.683,1.172 1.659,2.118 2.934,2.83 1.27,0.713 2.64,1.069 4.107,1.069 1.249,0 2.45,-0.265 3.606,-0.789 C -1.833,1.722 -0.834,0.971 0,0" /></g><g
         transform="translate(94.88885,23.3797)"
         id="g72"><path
           inkscape:connector-curvature="0"
           id="path74"
           style="fill:#231f20;fill-opacity:1;fill-rule:nonzero;stroke:none"
           d="M 0,0 H 2.924 V -5.709 H 7.975 V 0 h 2.91 v -15.134 h -2.91 v 6.64 H 2.924 v -6.64 H 0 Z" /></g><g
         transform="translate(140.30785,23.3797)"
         id="g76"><path
           inkscape:connector-curvature="0"
           id="path78"
           style="fill:#231f20;fill-opacity:1;fill-rule:nonzero;stroke:none"
           d="M 0,0 H 8.261 V -2.817 H 2.858 V -5.556 H 8.261 V -8.322 H 2.858 v -3.982 h 5.403 v -2.83 H 0 Z" /></g><g
         transform="translate(151.26585,23.3797)"
         id="g80"><path
           inkscape:connector-curvature="0"
           id="path82"
           style="fill:#231f20;fill-opacity:1;fill-rule:nonzero;stroke:none"
           d="M 0,0 H 2.762 L 9.236,-9.96 V 0 h 2.883 V -15.134 H 9.346 l -6.467,9.93 v -9.93 H 0 Z" /></g><g
         transform="translate(180.81365,20.9109)"
         id="g84"><path
           inkscape:connector-curvature="0"
           id="path86"
           style="fill:#231f20;fill-opacity:1;fill-rule:nonzero;stroke:none"
           d="m 0,0 -2.031,-2.007 c -1.283,1.36 -2.779,2.038 -4.489,2.038 -1.49,0 -2.737,-0.494 -3.74,-1.479 -1.009,-0.99 -1.511,-2.192 -1.511,-3.601 0,-1.463 0.522,-2.701 1.566,-3.718 1.045,-1.012 2.33,-1.522 3.861,-1.522 0.997,0 1.836,0.21 2.519,0.631 0.682,0.416 1.232,1.072 1.652,1.962 h -4.38 v 2.707 h 7.612 l 0.019,-0.638 c 0,-1.324 -0.343,-2.579 -1.03,-3.764 -0.683,-1.187 -1.572,-2.091 -2.662,-2.715 -1.091,-0.626 -2.371,-0.939 -3.838,-0.939 -1.57,0 -2.972,0.342 -4.201,1.025 -1.233,0.682 -2.207,1.655 -2.923,2.916 -0.717,1.263 -1.076,2.624 -1.076,4.083 0,2.003 0.663,3.745 1.985,5.227 1.572,1.762 3.615,2.645 6.131,2.645 1.316,0 2.55,-0.245 3.694,-0.73 C -1.874,1.711 -0.926,1.002 0,0" /></g><g
         transform="translate(190.63305,19.3709)"
         id="g88"><path
           inkscape:connector-curvature="0"
           id="path90"
           style="fill:#231f20;fill-opacity:1;fill-rule:nonzero;stroke:none"
           d="m 0,0 -2.029,-5.199 h 4.048 z m -1.479,4.009 h 2.92 L 7.265,-11.125 H 4.269 L 3.085,-8.008 H -3.09 l -1.23,-3.117 h -2.995 z" /></g><g
         transform="translate(214.09495,20.9109)"
         id="g92"><path
           inkscape:connector-curvature="0"
           id="path94"
           style="fill:#231f20;fill-opacity:1;fill-rule:nonzero;stroke:none"
           d="m 0,0 -2.027,-2.007 c -1.285,1.36 -2.782,2.038 -4.492,2.038 -1.49,0 -2.735,-0.494 -3.744,-1.479 -1.005,-0.99 -1.507,-2.192 -1.507,-3.601 0,-1.463 0.522,-2.701 1.566,-3.718 1.042,-1.012 2.33,-1.522 3.861,-1.522 0.996,0 1.836,0.21 2.521,0.631 0.679,0.416 1.232,1.072 1.652,1.962 h -4.385 v 2.707 H 1.06 l 0.019,-0.638 c 0,-1.324 -0.343,-2.579 -1.027,-3.764 -0.688,-1.187 -1.573,-2.091 -2.665,-2.715 -1.091,-0.626 -2.369,-0.939 -3.838,-0.939 -1.57,0 -2.972,0.342 -4.204,1.025 -1.231,0.682 -2.202,1.655 -2.921,2.916 -0.717,1.263 -1.073,2.624 -1.073,4.083 0,2.003 0.661,3.745 1.985,5.227 1.567,1.762 3.615,2.645 6.131,2.645 1.317,0 2.547,-0.245 3.695,-0.73 C -1.873,1.711 -0.928,1.002 0,0" /></g><g
         transform="translate(217.82925,23.3797)"
         id="g96"><path
           inkscape:connector-curvature="0"
           id="path98"
           style="fill:#231f20;fill-opacity:1;fill-rule:nonzero;stroke:none"
           d="M 0,0 H 8.261 V -2.817 H 2.86 V -5.556 H 8.261 V -8.322 H 2.86 v -3.982 h 5.401 v -2.83 H 0 Z" /></g><g
         transform="translate(230.24335,23.3797)"
         id="g100"><path
           inkscape:connector-curvature="0"
           id="path102"
           style="fill:#231f20;fill-opacity:1;fill-rule:nonzero;stroke:none"
           d="M 0,0 H 2.808 L 6.317,-10.552 9.857,0 h 2.803 l 2.54,-15.134 h -2.786 l -1.623,9.559 -3.215,-9.559 H 5.038 L 1.85,-5.575 0.19,-15.134 h -2.809 z" /></g><g
         transform="translate(247.74725,23.3797)"
         id="g104"><path
           inkscape:connector-curvature="0"
           id="path106"
           style="fill:#231f20;fill-opacity:1;fill-rule:nonzero;stroke:none"
           d="M 0,0 H 8.261 V -2.817 H 2.86 V -5.556 H 8.261 V -8.322 H 2.86 v -3.982 h 5.401 v -2.83 H 0 Z" /></g><g
         transform="translate(258.70525,23.3797)"
         id="g108"><path
           inkscape:connector-curvature="0"
           id="path110"
           style="fill:#231f20;fill-opacity:1;fill-rule:nonzero;stroke:none"
           d="M 0,0 H 2.763 L 9.237,-9.96 V 0 h 2.879 V -15.134 H 9.348 l -6.467,9.93 v -9.93 H 0 Z" /></g><g
         transform="translate(272.79025,23.3797)"
         id="g112"><path
           inkscape:connector-curvature="0"
           id="path114"
           style="fill:#231f20;fill-opacity:1;fill-rule:nonzero;stroke:none"
           d="M 0,0 H 8.361 V -2.841 H 5.604 V -15.134 H 2.681 V -2.841 H 0 Z" /></g><path
         inkscape:connector-curvature="0"
         id="path116"
         style="fill:#231f20;fill-opacity:1;fill-rule:nonzero;stroke:none"
         d="m 315.68525,23.3797 h 2.857 V 8.2457 h -2.857 z" /><g
         transform="translate(321.79515,23.3797)"
         id="g118"><path
           inkscape:connector-curvature="0"
           id="path120"
           style="fill:#231f20;fill-opacity:1;fill-rule:nonzero;stroke:none"
           d="M 0,0 H 2.767 L 9.243,-9.96 V 0 h 2.879 v -15.134 h -2.77 l -6.47,9.93 v -9.93 H 0 Z" /></g><g
         transform="translate(337.38305,23.3797)"
         id="g122"><path
           inkscape:connector-curvature="0"
           id="path124"
           style="fill:#231f20;fill-opacity:1;fill-rule:nonzero;stroke:none"
           d="M 0,0 H 2.765 L 9.241,-9.96 V 0 H 12.12 V -15.134 H 9.347 l -6.467,9.93 v -9.93 H 0 Z" /></g><g
         transform="translate(360.07445,20.9422)"
         id="g126"><path
           inkscape:connector-curvature="0"
           id="path128"
           style="fill:#231f20;fill-opacity:1;fill-rule:nonzero;stroke:none"
           d="m 0,0 c -1.401,0 -2.578,-0.486 -3.533,-1.46 -0.955,-0.975 -1.431,-2.213 -1.431,-3.716 0,-1.671 0.599,-2.996 1.802,-3.97 0.934,-0.762 2.005,-1.142 3.213,-1.142 1.365,0 2.53,0.494 3.492,1.483 0.96,0.986 1.439,2.204 1.439,3.653 0,1.439 -0.481,2.656 -1.448,3.656 C 2.564,-0.499 1.384,0 0,0 m 0.031,2.819 c 2.141,0 3.98,-0.772 5.521,-2.324 1.541,-1.55 2.314,-3.441 2.314,-5.671 0,-2.206 -0.761,-4.076 -2.283,-5.605 -1.52,-1.531 -3.364,-2.295 -5.532,-2.295 -2.273,0 -4.157,0.785 -5.66,2.356 -1.506,1.572 -2.257,3.436 -2.257,5.597 0,1.448 0.349,2.777 1.051,3.991 0.698,1.215 1.662,2.177 2.889,2.886 1.223,0.709 2.541,1.065 3.957,1.065" /></g><g
         transform="translate(369.50705,23.3797)"
         id="g130"><path
           inkscape:connector-curvature="0"
           id="path132"
           style="fill:#231f20;fill-opacity:1;fill-rule:nonzero;stroke:none"
           d="M 0,0 H 2.962 L 6.771,-10.751 10.635,0 h 2.958 L 8.138,-15.134 H 5.359 Z" /></g><g
         transform="translate(391.50505,19.3709)"
         id="g134"><path
           inkscape:connector-curvature="0"
           id="path136"
           style="fill:#231f20;fill-opacity:1;fill-rule:nonzero;stroke:none"
           d="m 0,0 -2.032,-5.199 h 4.049 z m -1.479,4.009 h 2.92 L 7.263,-11.125 H 4.268 l -1.183,3.117 h -6.177 l -1.228,-3.117 h -2.996 z" /></g><g
         transform="translate(399.50315,23.3797)"
         id="g138"><path
           inkscape:connector-curvature="0"
           id="path140"
           style="fill:#231f20;fill-opacity:1;fill-rule:nonzero;stroke:none"
           d="M 0,0 H 8.367 V -2.841 H 5.609 V -15.134 H 2.686 V -2.841 H 0 Z" /></g><path
         inkscape:connector-curvature="0"
         id="path142"
         style="fill:#231f20;fill-opacity:1;fill-rule:nonzero;stroke:none"
         d="m 409.63725,23.3797 h 2.861 V 8.2457 h -2.861 z" /><g
         transform="translate(422.85075,20.9422)"
         id="g144"><path
           inkscape:connector-curvature="0"
           id="path146"
           style="fill:#231f20;fill-opacity:1;fill-rule:nonzero;stroke:none"
           d="m 0,0 c -1.396,0 -2.577,-0.486 -3.53,-1.46 -0.956,-0.975 -1.432,-2.213 -1.432,-3.716 0,-1.671 0.599,-2.996 1.801,-3.97 0.934,-0.762 2.007,-1.142 3.215,-1.142 1.364,0 2.528,0.494 3.49,1.483 0.959,0.986 1.443,2.204 1.443,3.653 0,1.439 -0.486,2.656 -1.454,3.656 C 2.564,-0.499 1.389,0 0,0 m 0.032,2.819 c 2.142,0 3.983,-0.772 5.525,-2.324 1.541,-1.55 2.309,-3.441 2.309,-5.671 0,-2.206 -0.76,-4.076 -2.28,-5.605 -1.52,-1.531 -3.363,-2.295 -5.532,-2.295 -2.273,0 -4.159,0.785 -5.663,2.356 -1.503,1.572 -2.252,3.436 -2.252,5.597 0,1.448 0.347,2.777 1.048,3.991 0.701,1.215 1.663,2.177 2.885,2.886 1.228,0.709 2.546,1.065 3.96,1.065" /></g><g
         transform="translate(433.44355,23.3797)"
         id="g148"><path
           inkscape:connector-curvature="0"
           id="path150"
           style="fill:#231f20;fill-opacity:1;fill-rule:nonzero;stroke:none"
           d="M 0,0 H 2.764 L 9.242,-9.96 V 0 h 2.879 V -15.134 H 9.348 l -6.469,9.93 v -9.93 H 0 Z" /></g><g
         transform="translate(114.98065,23.7664)"
         id="g152"><path
           inkscape:connector-curvature="0"
           id="path154"
           style="fill:#008ca8;fill-opacity:1;fill-rule:nonzero;stroke:none"
           d="M 0,0 16.121,-13.399 V -15.9 h -2.719 z" /></g><g
         transform="translate(290.35855,23.7664)"
         id="g156"><path
           inkscape:connector-curvature="0"
           id="path158"
           style="fill:#008ca8;fill-opacity:1;fill-rule:nonzero;stroke:none"
           d="M 0,0 16.121,-13.399 V -15.9 h -2.719 z" /></g></g></g></svg>